# AST/ASF file generated using VICON BodyLanguage
# -----------------------------------------------
:version 1.10
:name VICON
:units
  mass 1.0
  length 0.45
  angle deg
:documentation
   .ast/.asf automatically generated from VICON data using
   VICON BodyBuilder and BodyLanguage model FoxedUp or BRILLIANT.MOD
:root
   order TX TY TZ RX RY RZ
   axis XYZ
   position 0 0 0  
   orientation 0 0 0 
:bonedata
  begin
     id 1 
     name lhipjoint
     direction 0.690799 -0.707083 0.151096 
     length 2.54797 
     axis 0 0 0  XYZ
  end
  begin
     id 2 
     name lfemur
     direction 0.34202 -0.939693 0  
     length 7.21646  
     axis 0 0 20  XYZ
    dof rx ry rz
    limits (-160.0 20.0)
           (-70.0 70.0)
           (-60.0 70.0)
  end
  begin
     id 3 
     name ltibia
     direction 0.34202 -0.939693 0   
     length 8.16759   
     axis 0 0 20   XYZ
    dof rx
    limits (-10.0 170.0)
  end
  begin
     id 4 
     name lfoot
     direction 0.0487203 -0.133858 0.989802   
     length 1.93375   
     axis -90 7.62852e-016 20   XYZ
    dof rx rz
    limits (-45.0 90.0)
           (-70.0 20.0)
  end
  begin
     id 5 
     name ltoes
     direction 1.53453e-011 -4.21783e-011 1   
     length 0.979747   
     axis -90 7.62852e-016 20   XYZ
    dof rx
    limits (-90.0 20.0)
  end
  begin
     id 6 
     name rhipjoint
     direction -0.694693 -0.703425 0.150315   
     length 2.56122  
     axis 0 0 0  XYZ 
  end
  begin
     id 7 
     name rfemur
     direction -0.34202 -0.939693 0   
     length 7.36786   
     axis 0 0 -20   XYZ
    dof rx ry rz
    limits (-160.0 20.0)
           (-70.0 70.0)
           (-70.0 60.0)
  end
  begin
     id 8 
     name rtibia
     direction -0.34202 -0.939693 0   
     length 8.07288   
     axis 0 0 -20   XYZ
    dof rx
    limits (-10.0 170.0)
 end
 begin
     id 9 
     name rfoot
     direction -0.0428397 -0.117701 0.992125   
     length 1.88295  
     axis -90 -7.62852e-016 -20   XYZ
    dof rx rz
    limits (-45.0 90.0)
           (-20.0 70.0)
  end
  begin
     id 10 
     name rtoes
     direction -1.53456e-011 -4.2187e-011 1   
     length 0.955578   
     axis -90 -7.62852e-016 -20   XYZ
    dof rx
    limits (-90.0 20.0)
  end
  begin
     id 11 
     name lowerback
     direction 0.0288145 0.999398 -0.0193241   
     length 1.92149   
     axis 0 0 0   XYZ
    dof rx ry rz
    limits (-20.0 45.0)
           (-30.0 30.0)
           (-30.0 30.0)
  end
  begin
     id 12 
     name upperback
     direction 0.0233784 0.998099 0.0570278   
     length 1.90435   
     axis 0 0 0   XYZ
    dof rx ry rz
    limits (-20.0 45.0)
           (-30.0 30.0)
           (-30.0 30.0)
  end
  begin
     id 13 
     name thorax
     direction 0.0096694 0.997833 0.0650817   
     length 1.9111   
     axis 0 0 0   XYZ
    dof rx ry rz
    limits (-20.0 45.0)
           (-30.0 30.0)
           (-30.0 30.0)
  end
  begin
     id 14 
     name lowerneck
     direction 0.00516803 0.999916 0.0118722   
     length 1.74664   
     axis 0 0 0   XYZ
    dof rx ry rz
    limits (-20.0 45.0)
           (-30.0 30.0)
           (-30.0 30.0)
  end
  begin
     id 15 
     name upperneck
     direction -0.0510851 0.996117 -0.071696   
     length 1.68498   
     axis 0 0 0   XYZ
    dof rx ry rz
    limits (-20.0 45.0)
           (-30.0 30.0)
           (-30.0 30.0)
  end
  begin
     id 16
     name head
     direction -0.019188 0.999436 -0.0275702  
     length 1.83483  
     axis 0 0 0   XYZ
    dof rx ry rz
    limits (-20.0 45.0)
           (-30.0 30.0)
           (-30.0 30.0)
  end
  begin
     id 17 
     name lclavicle
     direction 0.967006 0.248456 -0.0562957  
     length 3.39395  
     axis 0 0 0   XYZ
    dof ry rz
    limits (-20.0 10.0)
           (0.0 20.0)
  end
  begin
     id 18 
     name lhumerus
     direction 1 -4.48962e-011 -5.62711e-019   
     length 5.24318   
     axis 180 -30 -90   XYZ
    dof rx ry rz
    limits (-60.0 90.0)
           (-90.0 90.0)
           (-90.0 90.0)
  end
  begin
     id 19
     name lradius
     direction 1 -4.48966e-011 7.90625e-027   
     length 2.98999   
     axis 180 -30 -90   XYZ
    dof rx
    limits (-10.0 170.0)
  end
  begin
     id 20
     name lwrist
     direction 1 -4.48959e-011 1.61068e-026   
     length 1.49499   
     axis -9.31229e-015 90 90   XYZ
    dof ry
    limits (-180.0 0.0)
 end
  begin
     id 21 
     name lhand
     direction 1 -4.49017e-011 3.22136e-026   
     length 0.726745   
     axis -2.0555e-014 90 90   XYZ
    dof rx rz
    limits (-90.0 90.0)
           (-45.0 45.0)
  end
  begin
     id 22 
     name lfingers
     direction 1 -4.4898e-011 6.44272e-026   
     length 0.58592   
     axis -4.11101e-014 90 90   XYZ
    dof rx
    limits (0.0 90.0)
  end
  begin
     id 23
     name lthumb
     direction 0.707107 -6.34922e-011 0.707107   
     length 0.841268   
     axis -90 45 2.85299e-015   XYZ
    dof rx rz
    limits (-45.0 45.0)
           (-45.0 45.0)
  end
  begin
     id 24 
     name rclavicle
     direction -0.972232 0.230238 0.0419005   
     length 3.40416  
     axis 0 0 0   XYZ 
    dof ry rz
    limits (-10.0 20.0)
           (-20.0 0.0)
  end
  begin
     id 25 
     name rhumerus
     direction -1 -4.48976e-011 2.48487e-027  
     length 5.37045   
     axis 180 30 90   XYZ
    dof rx ry rz
    limits (-90.0 60.0)
           (-90.0 90.0)
           (-90.0 90.0)
  end
  begin
     id 26 
     name rradius
     direction -1 -4.48942e-011 7.87951e-027   
     length 2.92792   
     axis 180 30 90   XYZ
    dof rx
    limits (-10.0 170.0)
  end
  begin
     id 27 
     name rwrist
     direction -1 -4.48969e-011 1.61068e-026   
     length 1.46396   
     axis -9.31229e-015 -90 -90   XYZ
    dof ry
    limits (-180.0 0.0)
  end
  begin
     id 28
     name rhand
     direction -1 -4.49043e-011 3.22136e-026   
     length 0.784497   
     axis -2.0555e-014 -90 -90   XYZ
    dof rx rz
    limits (-90.0 90.0)
           (-45.0 45.0)
  end
  begin
     id 29
     name rfingers
     direction -1 -4.48823e-011 6.44272e-026   
     length 0.632482   
     axis -4.11101e-014 -90 -90   XYZ
    dof rx
    limits (0.0 90.0)
  end
  begin
     id 30
     name rthumb
     direction -0.707107 -6.34923e-011 0.707107   
     length 0.908121   
     axis -90 -45 -2.85299e-015   XYZ
    dof rx rz
    limits (-45.0 45.0)
           (-45.0 45.0)
  end
:hierarchy
  begin
    root lhipjoint rhipjoint lowerback
    lhipjoint lfemur
    lfemur ltibia
    ltibia lfoot
    lfoot ltoes
    rhipjoint rfemur
    rfemur rtibia
    rtibia rfoot
    rfoot rtoes
    lowerback upperback
    upperback thorax
    thorax lowerneck lclavicle rclavicle
    lowerneck upperneck
    upperneck head
    lclavicle lhumerus
    lhumerus lradius
    lradius lwrist
    lwrist lhand lthumb
    lhand lfingers
    rclavicle rhumerus
    rhumerus rradius
    rradius rwrist
    rwrist rhand rthumb
    rhand rfingers
  end

#!OML:ASF E:\Style6\Style6.ASF
:FULLY-SPECIFIED
:DEGREES
579
root -0.656779 15.5569 0.84002 -16.9259 8.07279 -15.1093
lowerback -1.83937 5.12273 -2.08295
upperback 2.97986 6.89022 1.52014
thorax 3.66796 3.35882 3.04411
lowerneck -12.056 4.82645 9.11015
upperneck 37.5544 6.29168 -2.59465
head 15.6825 3.74275 -1.6261
rclavicle 5.48646e-014 3.18055e-014
rhumerus 16.8341 5.14371 -108.95
rradius 26.0387
rwrist -10.4864
rhand -36.0807 14.4718
rfingers 7.12502
rthumb -9.1877 -15.308
lclavicle 5.48646e-014 3.18055e-014
lhumerus 67.6756 -59.9915 20.702
lradius 31.6174
lwrist 18.178
lhand -20.472 26.3034
lfingers 7.12502
lthumb 5.88411 56.2017
rfemur -6.25298 -25.8697 30.0725
rtibia 59.891
rfoot -30.4078 1.20853
rtoes -2.16606
lfemur -17.9704 -0.424093 3.83882
ltibia 71.2578
lfoot -32.209 6.50652
ltoes -39.3841
580
root -0.680303 15.533 0.854908 -18.0901 7.31362 -16.924
lowerback -1.23959 5.4672 -0.132892
upperback 3.12744 7.27179 1.93477
thorax 3.64513 3.60233 2.36934
lowerneck -12.0111 4.77669 9.18679
upperneck 37.6351 6.16812 -2.46226
head 15.7016 3.72511 -1.60417
rclavicle 1.1291e-013 7.63333e-014
rhumerus 16.3352 5.39487 -109.009
rradius 26.4031
rwrist -11.4223
rhand -36.5221 14.1016
rfingers 7.12502
rthumb -9.61359 -15.6591
lclavicle 1.1291e-013 7.63333e-014
lhumerus 69.0103 -60.4047 18.3695
lradius 32.7449
lwrist 18.9922
lhand -20.705 26.6623
lfingers 7.12502
lthumb 5.65915 56.5668
rfemur -5.04753 -25.7181 31.9664
rtibia 59.5296
rfoot -30.4391 0.796347
rtoes -2.34623
lfemur -17.0721 -0.148479 6.49375
ltibia 71.3667
lfoot -32.6275 5.89442
ltoes -39.4839
581
root -0.67939 15.5585 0.867262 -17.4315 8.23154 -15.0276
lowerback -2.09832 5.60581 -2.09456
upperback 3.04729 7.55552 1.11677
thorax 3.8948 3.6894 2.69748
lowerneck -11.8808 4.71798 9.28941
upperneck 37.6825 6.01226 -2.28149
head 15.6807 3.70473 -1.57346
rclavicle 2.26615e-014 1.27222e-014
rhumerus 15.8842 5.6067 -109.087
rradius 26.7761
rwrist -12.2722
rhand -36.9599 14.107
rfingers 7.12502
rthumb -10.036 -15.6338
lclavicle 2.26615e-014 1.27222e-014
lhumerus 70.6405 -60.7581 15.6831
lradius 33.9211
lwrist 20.0236
lhand -21.1384 27.0325
lfingers 7.12502
lthumb 5.24076 56.9477
rfemur -5.39549 -26.08 29.7274
rtibia 59.6202
rfoot -30.5145 1.01175
rtoes -3.03813
lfemur -17.3121 -0.661518 3.83448
ltibia 71.0804
lfoot -32.2954 6.32688
ltoes -39.074
582
root -0.68994 15.5602 0.882835 -17.7127 8.36395 -14.929
lowerback -2.26146 5.78644 -2.19038
upperback 3.13934 7.81224 0.945891
thorax 4.07956 3.81165 2.61159
lowerneck -11.7493 4.69959 9.34821
upperneck 37.6873 5.9718 -2.21491
head 15.6492 3.70983 -1.5644
rclavicle 5.1684e-014 0
rhumerus 15.4056 6.11471 -109.078
rradius 27.2382
rwrist -13.2728
rhand -37.4537 14.0101
rfingers 7.12502
rthumb -10.5123 -15.707
lclavicle 5.1684e-014 0
lhumerus 72.1437 -61.0052 13.1018
lradius 35.0892
lwrist 21.2846
lhand -21.4496 27.2196
lfingers 7.12502
lthumb 4.94026 57.1421
rfemur -4.91604 -26.2039 29.4533
rtibia 59.5264
rfoot -30.6002 0.741859
rtoes -4.00225
lfemur -16.9265 -0.819184 3.73642
ltibia 70.9683
lfoot -32.3215 6.45171
ltoes -39.3874
583
root -0.700296 15.5557 0.892976 -17.9786 8.4386 -14.9678
lowerback -2.35555 5.94966 -2.09815
upperback 3.19906 8.03519 0.803371
thorax 4.21559 3.92406 2.44296
lowerneck -11.6573 4.69169 9.43861
upperneck 37.7167 5.95229 -2.19486
head 15.6448 3.72153 -1.57623
rclavicle 8.46823e-014 9.54166e-015
rhumerus 14.9072 6.68234 -109.165
rradius 27.7434
rwrist -14.1783
rhand -38.0668 13.5097
rfingers 7.12502
rthumb -11.1037 -16.1766
lclavicle 8.46823e-014 9.54166e-015
lhumerus 73.2754 -61.1919 10.8656
lradius 36.2416
lwrist 22.4304
lhand -21.582 27.3536
lfingers 7.12502
lthumb 4.81239 57.279
rfemur -4.57456 -26.2584 29.3996
rtibia 59.5512
rfoot -30.7781 0.592603
rtoes -4.35395
lfemur -16.6313 -0.949661 3.81379
ltibia 70.8441
lfoot -32.3307 6.5002
ltoes -39.6343
